<svg width="26" height="22" viewBox="0 0 26 22" fill="none" xmlns="http://www.w3.org/2000/svg">
<path d="M22.906 0.780997C23.031 0.772997 23.16 0.776997 23.281 0.812997C23.4703 0.865779 23.6394 0.974317 23.7661 1.12449C23.8929 1.27466 23.9716 1.45951 23.9918 1.655C24.0121 1.85048 23.9731 2.04754 23.8799 2.22054C23.7866 2.39354 23.6434 2.53447 23.469 2.625L17.875 5.656L17.562 5.812L17.437 6.156L13.719 15.094L13.281 15.281L14.344 9.375L14.719 7.344L12.906 8.313L6.594 11.719L2.625 7.406L2.781 7.312L6.438 8.938L6.906 9.156L7.312 8.906L22.532 0.874996C22.6483 0.816583 22.7759 0.78449 22.906 0.780997Z" fill="#6E7491"/>
<path d="M10.375 2.094L14.219 3.031L12.156 4.094L9.906 2.375L10.375 2.094Z" fill="#6E7491"/>
<path fill-rule="evenodd" clip-rule="evenodd" d="M0 22V20H26V22H0Z" fill="#6E7491"/>
</svg>
