<svg width="25" height="25" viewBox="0 0 25 25" fill="none" xmlns="http://www.w3.org/2000/svg">
<path d="M22.25 12.5C22.25 13.7337 21.2337 14.75 20 14.75H14.492L11.6795 21.0545L11.492 21.5H7.90625L8.65625 14.75H7.27325L5.98475 16.6722L5.77325 17H2.58575L2.77325 16.109L3.5 12.5L2.77325 8.89025L2.58575 8H5.77325L5.98475 8.3285L7.2725 10.25L8.6555 10.25L7.9055 3.5H11.4913L11.6788 3.9455L14.492 10.25H20C21.2337 10.25 22.25 11.2663 22.25 12.5ZM20.75 12.5C20.75 12.0755 20.4245 11.75 20 11.75H13.508L13.3205 11.3045L10.508 5H9.59375L10.3438 11.75L6.45275 11.75L6.24275 11.4215L4.952 9.5H4.4135L4.976 12.3597L5.0225 12.5L4.976 12.641L4.4135 15.5H4.952L6.242 13.5778L6.452 13.25L10.343 13.25L9.593 20H10.5072L13.3197 13.6955L13.5072 13.25H20C20.4245 13.25 20.75 12.9245 20.75 12.5Z" fill="black"/>
</svg>
