<svg width="32" height="32" viewBox="0 0 32 32" fill="none" xmlns="http://www.w3.org/2000/svg">
<path d="M14.906 8.40599L15.719 8.62499L18.156 12.594L15.344 11.75L14.906 8.40599Z" fill="#6E7491"/>
<path d="M5.28099 6.62499L5.71899 6.74999L7.31199 10.938L7.46899 11.406L7.93699 11.531L26.125 17.156C26.2781 17.1992 26.421 17.2726 26.5452 17.3719C26.6694 17.4712 26.7725 17.5945 26.8483 17.7343C26.9241 17.8741 26.9711 18.0278 26.9865 18.1861C27.0019 18.3444 26.9854 18.5042 26.938 18.656C26.8948 18.8091 26.8214 18.952 26.7221 19.0762C26.6228 19.2004 26.4995 19.3035 26.3597 19.3793C26.2199 19.4551 26.0662 19.5021 25.9079 19.5175C25.7496 19.5329 25.5898 19.5164 25.438 19.469L18.688 17.437L18.344 17.344L18.031 17.469L8.09399 21.625L7.34399 21.312L12.969 17.437L14.688 16.25L12.688 15.656L5.03099 13.344L5.28099 6.62499Z" fill="#6E7491"/>
<path fill-rule="evenodd" clip-rule="evenodd" d="M19.4393 21.4393C19.7206 21.158 20.1022 21 20.5 21C20.8978 21 21.2794 21.158 21.5607 21.4393C21.842 21.7206 22 22.1022 22 22.5C22 22.8978 21.842 23.2794 21.5607 23.5607C21.2794 23.842 20.8978 24 20.5 24C20.1022 24 19.7206 23.842 19.4393 23.5607C19.158 23.2794 19 22.8978 19 22.5C19 22.1022 19.158 21.7206 19.4393 21.4393ZM2.99999 28V26H29V28H2.99999Z" fill="#6E7491"/>
</svg>
